<svg width="24" height="24" viewBox="0 0 24 24" fill="none" xmlns="http://www.w3.org/2000/svg">
<g clip-path="url(#clip0_12_17)">
<path d="M18.9 10.5C18.9 9.9 19.3 9.5 19.9 9.5C20.5 9.5 20.9 9.9 20.9 10.5V18.4C20.9 19.9 19.7 21.2 18.1 21.2H5.70002C4.20002 21.2 2.90002 20 2.90002 18.4V5.9C2.90002 4.4 4.10002 3.1 5.70002 3.1H14.6C15.2 3.1 15.6 3.5 15.6 4.1C15.6 4.7 15.2 5.1 14.6 5.1H5.70002C5.30002 5.1 4.90002 5.4 4.90002 5.9V18.3C4.90002 18.7 5.20002 19.1 5.70002 19.1H18.1C18.5 19.1 18.9 18.8 18.9 18.3V10.5ZM20.1 4.9C20.5 5.3 20.5 5.9 20.1 6.3L13 13.4C12.6 13.8 12 13.8 11.6 13.4C11.2 13 11.2 12.4 11.6 12L18.7 4.9C19.1 4.5 19.7 4.5 20.1 4.9Z" fill="black"/>
</g>
<defs>
<clipPath id="clip0_12_17">
<rect width="24" height="24" fill="white"/>
</clipPath>
</defs>
</svg>
