<?xml version="1.0" encoding="utf-8"?>
<!-- Generator: Adobe Illustrator 24.0.0, SVG Export Plug-In . SVG Version: 6.00 Build 0)  -->
<svg version="1.1" id="图层_1" xmlns="http://www.w3.org/2000/svg" xmlns:xlink="http://www.w3.org/1999/xlink" x="0px" y="0px"
	 viewBox="0 0 140 140" style="enable-background:new 0 0 140 140;" xml:space="preserve">
<style type="text/css">
	.st0{opacity:8.000000e-02;}
	.st1{fill:#FFD2B3;}
	.st2{fill:#9E6F5A;}
	.st3{fill-rule:evenodd;clip-rule:evenodd;fill:#F78000;}
	.st4{fill:#FF982D;}
	.st5{fill:#FFF9F4;}
	.st6{clip-path:url(#SVGID_2_);}
	.st7{fill-rule:evenodd;clip-rule:evenodd;fill:#FFE3D1;}
	.st8{fill:#FFFFFF;}
	.st9{fill-rule:evenodd;clip-rule:evenodd;fill:#EFEEEE;}
	.st10{fill-rule:evenodd;clip-rule:evenodd;fill:#092978;}
	.st11{fill-rule:evenodd;clip-rule:evenodd;fill:#FFFFFF;}
	.st12{fill:#F78000;}
	.st13{fill:#FFB162;}
	.st14{fill:#FBDB16;}
	.st15{fill-rule:evenodd;clip-rule:evenodd;fill:#FF5B59;}
	.st16{fill-rule:evenodd;clip-rule:evenodd;fill:#FF2D2C;}
	.st17{fill-rule:evenodd;clip-rule:evenodd;fill:#DFE7F4;}
	.st18{fill-rule:evenodd;clip-rule:evenodd;fill:#2AAFAE;}
	.st19{fill-rule:evenodd;clip-rule:evenodd;fill:#45CECE;}
	.st20{clip-path:url(#SVGID_4_);}
	.st21{fill:#2AAFAE;}
	.st22{clip-path:url(#SVGID_6_);}
	.st23{fill:#45CECE;}
</style>
<g>
	<g id="mobile">
		<g class="st0">
			<path class="st1" d="M106.1,71.4c0,23.3-17.3,42.3-38.5,42.3S29.1,94.8,29.1,71.4s26.5-41,47.7-41S106.1,48.1,106.1,71.4z"/>
			<ellipse class="st1" cx="67.3" cy="119" rx="20.9" ry="1.4"/>
			<path class="st1" d="M50.8,30.4c0,3.9-9.4,8.2-13.6,8.2s-3.6-5.7-3.6-9.6s3.4-7,7.6-7S50.8,26.5,50.8,30.4z"/>
		</g>
		<g class="st0">
			<path class="st2" d="M106.1,71.4c0,23.3-17.3,42.3-38.5,42.3S29.1,94.8,29.1,71.4s26.5-41,47.7-41S106.1,48.1,106.1,71.4z"/>
			<ellipse class="st2" cx="67.3" cy="119" rx="20.9" ry="1.4"/>
			<path class="st2" d="M50.8,30.4c0,3.9-9.4,8.2-13.6,8.2s-3.6-5.7-3.6-9.6s3.4-7,7.6-7S50.8,26.5,50.8,30.4z"/>
		</g>
		<g id="图层_7">
			<path class="st3" d="M55.2,48.1h25.5c2.3,0,4.2,1.9,4.3,4.3v52.8c0,2.3-1.9,4.2-4.3,4.3H55.2c-2.3,0-4.2-1.9-4.3-4.3V52.4
				C51,50.1,52.9,48.1,55.2,48.1"/>
			<path class="st4" d="M55.7,48.8h25.5c2,0,3.6,1.6,3.6,3.6v52.8c0,2-1.6,3.6-3.6,3.6H55.7c-2,0-3.6-1.6-3.6-3.6V52.4
				C52.1,50.4,53.7,48.8,55.7,48.8z"/>
			<path class="st5" d="M55.7,50.2h25.5c1.2,0,2.2,1,2.2,2.2v49.9c0,1.2-1,2.2-2.2,2.2H55.7c-1.2,0-2.2-1-2.2-2.2V52.4
				C53.5,51.2,54.5,50.2,55.7,50.2z"/>
			<g>
				<defs>
					<path id="SVGID_1_" d="M55.7,50.2h25.5c1.2,0,2.2,1,2.2,2.2v49.9c0,1.2-1,2.2-2.2,2.2H55.7c-1.2,0-2.2-1-2.2-2.2V52.4
						C53.5,51.2,54.5,50.2,55.7,50.2z"/>
				</defs>
				<clipPath id="SVGID_2_">
					<use xlink:href="#SVGID_1_"  style="overflow:visible;"/>
				</clipPath>
				<g class="st6">
					<path class="st7" d="M84.2,100.8v3.7h-32v-5.1c0.8-0.2,1.6-0.3,2.4-0.2c0.3-0.8,1-1.4,1.9-1.4c0.3-0.2,0.5-0.4,0.8-0.5
						c0-0.3,0-0.7,0-0.7c0-1.6,1.3-2.8,2.8-2.8c0.6,0,1.1,0.2,1.6,0.5c0-0.1,0.1-0.2,0.1-0.3c0.3-4,0.3-8,0.2-11.9l-0.1-2.7H74
						l-0.1,2.7c-0.2,4.1-0.1,8.1,0.2,12.2c0.4,0.2,0.9,0.4,1.2,0.7c1.2-0.6,2.7,0,3.2,1.2c0.1,0.1,0.1,0.3,0.1,0.4
						c1.3-0.9,3-0.6,3.9,0.7c0.3,0.5,0.5,1,0.5,1.6c0,0.1,0,0.2,0,0.3c0.4,0.1,0.8,0.3,1.1,0.7L84.2,100.8z"/>
					<path class="st8" d="M71.3,82h-6.8c0.2,5,0,10-0.4,14.9c-0.8-0.4-1.8,0-2.2,0.9c-0.1,0.2-0.1,0.4-0.1,0.7c0,0.1,0,0.3,0.1,0.4
						h-0.1c-0.7,0-1.3,0.3-1.7,0.8c-0.9-0.5-2.1-0.2-2.6,0.7c-0.2,0.3-0.2,0.6-0.2,0.9c0,0.2,0,0.3,0.1,0.5c-0.1,0-0.2,0-0.3,0
						c-0.5,0-1.1,0.2-1.5,0.5c-1.1-0.6-2.4-0.6-3.4,0v2.9h32v-0.7c-0.3-0.1-0.7-0.2-1.1-0.2c-0.2,0-0.4,0-0.6,0.1c0-0.1,0-0.3,0-0.4
						c0-1.5-1.2-2.8-2.8-2.8c-0.3,0-0.6,0.1-0.9,0.2c-0.2-0.5-0.7-0.9-1.3-0.7c-0.1,0-0.1,0-0.2,0.1c-0.3-1.2-1.6-2-2.8-1.7
						c-0.1,0-0.2,0.1-0.4,0.1c-0.2-0.3-0.5-0.6-0.9-0.7c0-0.1,0-0.1,0-0.2c0-0.9-0.7-1.7-1.6-1.7C71.2,91.7,71.1,86.9,71.3,82"/>
					<path class="st9" d="M65.4,86.4c0,0-0.3,13.1,0.9,18.4c0.3,1.2,0.4-0.4,0.5-5.7s0.8-4.6,0.9-3c0.1,1.6,0.1,8.9,0.4,4.2
						s0.6-7.5,0.8-6.4c1.1,5,1.3-2.7,1.2-7.5L65.4,86.4z"/>
				</g>
			</g>
			<path class="st10" d="M67.9,59.9l-8.3,0.1c-0.6,0-1.1-0.5-1.1-1v-0.4c-0.1-0.4-0.6-0.7-1-0.7l1-0.4V57l18.7-0.2v0.4l1,0.4
				c-0.5,0-0.9,0.3-1,0.7v0.4c0,0.6-0.5,1.1-1.1,1.1L67.9,59.9z"/>
			<path class="st11" d="M66,58.4c-0.2,0-0.3-0.1-0.3-0.3c0-0.2,0.1-0.3,0.3-0.3l5,0c0.2,0,0.3,0.1,0.3,0.3c0,0.2-0.1,0.3-0.3,0.3
				c0,0,0,0,0,0L66,58.4z M65,57.9c0.2,0,0.3,0.1,0.3,0.3c0,0.2-0.1,0.3-0.3,0.3h-0.2c-0.2,0-0.3-0.1-0.3-0.3c0-0.2,0.1-0.3,0.3-0.3
				L65,57.9z"/>
			<path class="st12" d="M71.9,81.3l-8.1,0.1c0,0-2.8,2.7-2.5,7.9c0.3,5.2,6.7,8.4,6.7,8.4s6.3-3.3,6.5-8.5
				C74.8,83.9,71.9,81.3,71.9,81.3"/>
			<path class="st13" d="M70.5,80.8l-5.3,0.1c0,0-1.8,2.1-1.6,6.2s4.4,6.6,4.4,6.6s4.1-2.6,4.2-6.7C72.3,82.8,70.5,80.8,70.5,80.8"
				/>
			<path class="st14" d="M69.2,80.8l-2.6,0c0,0-0.9,1.4-0.8,4.1s2.2,4.4,2.2,4.4s2.1-1.7,2.1-4.4C70.1,82.2,69.2,80.8,69.2,80.8"/>
			<path class="st15" d="M60.9,83.9c-2.4-0.7,0.7-4.2,0.7-4.2l12.8-0.1c0,0,3.2,3.5,0.8,4.2C72,85.3,65.1,86.1,60.9,83.9"/>
			<path class="st11" d="M62.3,80.2c-1.9-0.7,0.6-4.2,0.6-4.2l10.2-0.1c0,0,2.5,3.5,0.6,4.2C71.1,81.1,65,81.2,62.3,80.2"/>
			<path class="st15" d="M77.2,62.1c0,0,9.5,4.3,10,4.6c0.6,0.2,1,0.7,1.2,1.3c0.1,0.6,2.2,10.7,2.4,11.1c0.1,0.4-0.6,0.7-2,0.6
				c-0.5-0.1-4.5-4-6.4-4.3c-3.7-0.6-6.4-1.1-6.4-1.1L77.2,62.1z"/>
			<path class="st16" d="M90.9,79.3L90.9,79.3l-0.1,0.2c-0.3,0.2-0.9,0.3-1.9,0.2c-0.5-0.1-4.7-4-6.7-4.3c-3.9-0.6-6.7-1.1-6.7-1.1
				l0.1-0.9l0.7-2.1c0,0,5.8,1.3,7.5,2C85.6,74,90.9,79.3,90.9,79.3"/>
			<path class="st15" d="M58.5,62.3c0,0-9.6,4.5-10.2,4.7c-0.6,0.2-1.1,0.7-1.3,1.4c-0.1,0.6-2.1,10.8-2.2,11.2
				c-0.1,0.4,0.6,0.7,2.1,0.5c0.5-0.1,4.6-4.1,6.6-4.5c3.9-0.7,6.6-1.2,6.6-1.2L58.5,62.3z"/>
			<path class="st16" d="M44.7,79.8L44.7,79.8l0.1,0.2c0.3,0.2,0.9,0.3,1.9,0.2c0.5-0.1,4.6-4.1,6.6-4.5c3.9-0.7,6.6-1.2,6.6-1.2
				l-0.1-0.9l-0.8-2.1c0,0-6.7,1.6-8.1,2.5C49.6,74.9,44.7,79.8,44.7,79.8"/>
			<path class="st15" d="M74.9,78.3c4.2-1.9,5.9-27.7-2.2-37.9c-3.5-4.2-6.1-4.5-9.7-0.3c-8.3,9.8-6.2,36.5-1.8,38.4
				C63.8,79.5,72.3,79.5,74.9,78.3"/>
			<path class="st16" d="M74.9,78.3c4.2-1.9,6.2-27.7-2.2-37.9c-2.5-3-4.5-4-6.8-2.8c1,0.5,2,1.5,3.1,2.8c8.4,10.2,6.5,36,2.2,37.9
				c-1,0.5-2.9,0.7-5,0.9C69.5,79.3,73.3,79,74.9,78.3"/>
			<path class="st11" d="M78.3,67.9c0.8-8.9-0.4-21.2-5.6-27.5c-3.5-4.2-6.1-4.5-9.7-0.3c-5.4,6.3-6.4,18.9-5.4,28
				C63.3,69,72.5,68.9,78.3,67.9"/>
			<path class="st17" d="M78.3,67.9c0.8-8.9-0.4-21.2-5.6-27.5c-1.8-2.1-3.3-3.3-4.9-3.3c0.3,1.4,0.7,2.8,1.2,3.4
				c5.3,6.4,6.5,19.1,5.6,28C75.9,68.3,77.2,68.1,78.3,67.9"/>
			<path class="st18" d="M67.8,60.6c2.9,0,5.2-2.4,5.2-5.2c0-2.9-2.4-5.2-5.2-5.2c-2.9,0-5.2,2.4-5.2,5.2c0,0,0,0,0,0
				C62.6,58.3,65,60.6,67.8,60.6"/>
			<path class="st16" d="M69.1,75.9c0.5-0.7,0.6-2.1,0.6-3.5c0-1.4-1.3-8-1.3-8.2c-0.1-0.7-0.8-0.6-0.9,0c0,0.2-1.2,6.8-1.2,8.2
				s0.1,2.8,0.6,3.5C67.7,76.8,68.3,76.8,69.1,75.9"/>
			<path class="st15" d="M76.4,47.5c-0.9-3.3-2.1-6.2-3.8-8.4c-3.5-4.9-6.1-5.2-9.7-0.3c-1.7,2.3-2.9,5.3-3.8,8.7
				c2.9,0.8,6,1.1,9,1.1C70.9,48.5,73.7,48.2,76.4,47.5"/>
			<path class="st16" d="M70.1,36.2L70.1,36.2c-0.1-0.1-0.2-0.2-0.3-0.2l0,0l-0.1-0.1l0,0c-0.1-0.1-0.2-0.1-0.3-0.2l0,0l-0.1,0l0,0
				l-0.1-0.1l0,0c0,0,0,0-0.1,0l0,0l-0.1,0l0,0C69.2,35.8,69.7,36,70.1,36.2 M70.1,36.2c1,0.8,1.8,1.8,2.5,2.9
				c1.6,2.3,2.8,5.2,3.8,8.4c-1.2,0.3-2.3,0.5-3.5,0.7c-0.9-3.5-2.2-6.7-3.9-9.1c-1.1-1.6-2.1-2.7-3.1-3.3l0.1-0.1l0,0
				c0.1-0.1,0.3-0.2,0.4-0.2h0c0.1,0,0.2-0.1,0.3-0.1h0l0.1,0h0l0.1,0l0,0l0.1,0h0l0.1,0h0l0.1,0h0h0.1h0c0,0,0.1,0,0.1,0h0.2h0.1h0
				h0.1h0.1h0.1h0.1l0.1,0l0.1,0l0.1,0l0.1,0l0.1,0L70.1,36.2z"/>
			<path class="st19" d="M67.8,59.1c2.1,0,3.7-1.7,3.7-3.8c0-2.1-1.7-3.7-3.8-3.7c-2.1,0-3.7,1.7-3.7,3.8c0,0,0,0,0,0
				C64.1,57.5,65.8,59.1,67.8,59.1"/>
			<path class="st11" d="M66.1,52.8l4.4,4.4c0.2-0.3,0.3-0.6,0.4-0.9L67,52.3C66.7,52.4,66.4,52.6,66.1,52.8z M65.4,53.5l4.4,4.4
				c-0.4,0.3-1,0.6-1.5,0.6l-3.5-3.5C64.8,54.5,65,54,65.4,53.5L65.4,53.5z"/>
			<polygon class="st11" points="81.2,78.9 81.4,81.2 83.7,81.4 81.4,81.5 81.3,83.9 81.1,81.5 78.8,81.4 81.1,81.3 			"/>
			<polygon class="st11" points="57.2,89.6 57.4,92 59.7,92.1 57.3,92.2 57.2,94.6 57.1,92.2 54.7,92.1 57.1,92 			"/>
			<polygon class="st11" points="55.2,84.5 55.3,85.7 56.5,85.8 55.2,85.9 55.2,87.1 55.1,85.8 53.9,85.8 55.1,85.7 			"/>
			<polygon class="st11" points="77,89.9 77.1,91.6 78.8,91.7 77.1,91.8 77,93.5 76.9,91.8 75.2,91.7 76.9,91.6 			"/>
			<path class="st18" d="M109.5,47.8L94.2,48c-2.2,0-3.9,1.8-3.9,3.9c0,0,0,0,0,0l0.1,6.2c0,2.2,1.8,3.9,3.9,3.9c0,0,0,0,0,0
				l9.2-0.1l1,3.9l2.7-3.9l2.4,0c2.2,0,3.9-1.8,3.9-3.9c0,0,0,0,0,0l-0.1-6.2C113.5,49.6,111.7,47.8,109.5,47.8
				C109.5,47.8,109.5,47.8,109.5,47.8z"/>
			<g>
				<defs>
					<path id="SVGID_3_" d="M109.5,47.8L94.2,48c-2.2,0-3.9,1.8-3.9,3.9c0,0,0,0,0,0l0.1,6.2c0,2.2,1.8,3.9,3.9,3.9c0,0,0,0,0,0
						l9.2-0.1l1,3.9l2.7-3.9l2.4,0c2.2,0,3.9-1.8,3.9-3.9c0,0,0,0,0,0l-0.1-6.2C113.5,49.6,111.7,47.8,109.5,47.8
						C109.5,47.8,109.5,47.8,109.5,47.8z"/>
				</defs>
				<clipPath id="SVGID_4_">
					<use xlink:href="#SVGID_3_"  style="overflow:visible;"/>
				</clipPath>
				<g class="st20">
					<path class="st19" d="M108.7,48.9L93.4,49c-2.2,0-3.9,1.8-3.9,3.9c0,0,0,0,0,0l0.1,6.2c0,2.2,1.8,3.9,3.9,3.9c0,0,0,0,0,0
						l9.2-0.1l1,3.9l2.7-3.9l2.4,0c2.2,0,3.9-1.8,3.9-3.9c0,0,0,0,0,0l-0.1-6.2C112.6,50.6,110.9,48.8,108.7,48.9
						C108.7,48.9,108.7,48.9,108.7,48.9z"/>
				</g>
			</g>
			<circle class="st21" cx="95.5" cy="55.1" r="1.6"/>
			<circle class="st21" cx="101.2" cy="55.1" r="1.6"/>
			<circle class="st21" cx="107.1" cy="55" r="1.6"/>
			<path class="st18" d="M42.2,86.9l-10.5,0.2c-1.5,0-2.7,1.2-2.7,2.7l0.1,4.3c0,1.5,1.2,2.7,2.7,2.7l6.3-0.1l0.7,2.6l1.8-2.7l1.6,0
				c1.5,0,2.7-1.2,2.7-2.7l-0.1-4.3C44.9,88.1,43.7,86.9,42.2,86.9z"/>
			<g>
				<defs>
					<path id="SVGID_5_" d="M42.2,86.9l-10.5,0.2c-1.5,0-2.7,1.2-2.7,2.7l0.1,4.3c0,1.5,1.2,2.7,2.7,2.7l6.3-0.1l0.7,2.6l1.8-2.7
						l1.6,0c1.5,0,2.7-1.2,2.7-2.7l-0.1-4.3C44.9,88.1,43.7,86.9,42.2,86.9z"/>
				</defs>
				<clipPath id="SVGID_6_">
					<use xlink:href="#SVGID_5_"  style="overflow:visible;"/>
				</clipPath>
				<g class="st22">
					<path class="st19" d="M41.7,87.6l-10.5,0.2c-1.5,0-2.7,1.2-2.7,2.7l0.1,4.3c0,1.5,1.2,2.7,2.7,2.7c0,0,0,0,0,0l6.3-0.1l0.7,2.6
						l1.8-2.7l1.6,0c1.5,0,2.7-1.2,2.7-2.7c0,0,0,0,0,0l-0.1-4.3C44.4,88.8,43.1,87.6,41.7,87.6z"/>
				</g>
			</g>
			<circle class="st21" cx="32.6" cy="92" r="1.1"/>
			<circle class="st21" cx="36.6" cy="92" r="1.1"/>
			<circle class="st21" cx="40.6" cy="91.9" r="1.1"/>
			<path class="st23" d="M46.4,53.8c0-0.2-0.3-0.4-0.4-0.5l-1.1-0.8c0-0.4,0-0.8,0-1.3c0-0.2,0.1-0.6-0.1-0.7s-0.4,0.2-0.6,0.3
				L43,51.7l-1.2-0.4c-0.2-0.1-0.6-0.3-0.7-0.1c-0.2,0.2,0.1,0.5,0.1,0.6c0.2,0.4,0.3,0.8,0.5,1.3l-0.7,1c-0.1,0.2-0.4,0.4-0.3,0.7
				c0.1,0.2,0.5,0.1,0.6,0.1l1.3,0c0.2,0.3,0.5,0.7,0.7,1c0.1,0.2,0.3,0.5,0.5,0.5c0.2,0,0.3-0.5,0.3-0.6c0.1-0.4,0.2-0.8,0.4-1.3
				l1.2-0.4C45.9,54,46.3,54,46.4,53.8z"/>
			<path class="st21" d="M46,54c-2.3,0.2-2.9,0.3-4,0.4c-0.9,0.1-0.8,0-0.2-0.7c0.5-0.6,0.5-0.8,0.1-1.3c-0.2-0.3-0.5-0.6-0.8-1.1
				c0,0.2,0.1,0.3,0.2,0.5c0.2,0.4,0.3,0.8,0.5,1.3l-0.7,1c-0.1,0.2-0.4,0.4-0.3,0.7s0.5,0.1,0.6,0.1l1.3,0c0.2,0.3,0.5,0.7,0.7,1
				c0.1,0.2,0.3,0.5,0.5,0.5c0.2,0,0.3-0.5,0.3-0.6c0.1-0.4,0.2-0.8,0.4-1.3l1.2-0.4C45.8,54.1,45.9,54,46,54z"/>
			<path class="st4" d="M104.1,85c0.1-0.3-0.5-0.6-0.7-0.7c-0.6-0.4-1.1-0.8-1.7-1.2c0-0.6,0-1.3,0-1.9c0-0.2,0.1-1-0.2-1.1
				c-0.3-0.1-0.7,0.3-0.9,0.4L99,81.8l-1.8-0.6c-0.3-0.1-0.9-0.4-1.1-0.1c-0.2,0.2,0.1,0.7,0.2,0.9c0.2,0.6,0.5,1.3,0.7,1.9
				l-1.1,1.5c-0.2,0.2-0.6,0.7-0.5,1c0.1,0.3,0.8,0.2,1,0.2l2-0.1c0.4,0.5,0.7,1,1.1,1.5c0.2,0.3,0.4,0.8,0.8,0.8
				c0.3,0,0.4-0.7,0.4-0.9c0.2-0.6,0.4-1.3,0.6-1.9c0.6-0.2,1.2-0.4,1.9-0.6C103.3,85.4,104,85.3,104.1,85z"/>
			<path class="st12" d="M103.5,85.4c-3.5,0.3-4.5,0.4-6.1,0.6c-1.4,0.2-1.2-0.1-0.3-1c0.8-0.9,0.8-1.2,0.2-2
				c-0.3-0.4-0.8-1-1.3-1.7c0,0.2,0.1,0.5,0.2,0.7c0.2,0.6,0.5,1.3,0.7,1.9l-1.1,1.5c-0.2,0.2-0.6,0.7-0.5,1c0.1,0.3,0.8,0.2,1,0.2
				l2-0.1c0.4,0.5,0.7,1,1.1,1.5c0.2,0.3,0.4,0.8,0.8,0.8c0.3,0,0.4-0.7,0.4-0.9c0.2-0.6,0.4-1.3,0.6-1.9c0.6-0.2,1.2-0.4,1.9-0.6
				C103.2,85.5,103.3,85.4,103.5,85.4z"/>
		</g>
	</g>
</g>
</svg>
